<svg xmlns="http://www.w3.org/2000/svg" viewBox="0 0 16 16">
  <defs>
    <style>.canvas{fill: none; opacity: 0;}.light-defaultgrey{fill: #212121; opacity: 1;}.light-blue{fill: #005dba; opacity: 1;}</style>
  </defs>
  <title>Translate</title>
  <g id="canvas">
    <path class="canvas" d="M16,16H0V0H16Z" />
  </g>
  <g id="level-1">
    <path class="light-defaultgrey" d="M4.811,1.646a3.848,3.848,0,0,0-2.11.582V3.246a3.057,3.057,0,0,1,2.025-.764q1.279,0,1.28,1.583l-1.862.261Q2.095,4.611,2.1,6.351a1.7,1.7,0,0,0,.524,1.3,2.04,2.04,0,0,0,1.452.492A2.081,2.081,0,0,0,5.981,7.03h.025V8H7V3.962Q7,1.646,4.811,1.646Zm1.2,3.832A1.852,1.852,0,0,1,5.524,6.79,1.6,1.6,0,0,1,4.3,7.309a1.253,1.253,0,0,1-.864-.288.947.947,0,0,1-.325-.743.99.99,0,0,1,.352-.87,2.429,2.429,0,0,1,1.043-.343l1.5-.206Zm8.866,6.841a2.255,2.255,0,0,0-1.321-1.51,2.749,2.749,0,0,0-.572-.175l-.081-.052V10.5a.4.4,0,0,0-.8-.015l0,.089-.089.007a5.291,5.291,0,0,0-.885.148l-.136.036L11,10.624c.024-.268.054-.549.094-.843L11.1,9.7l.079-.008a13.967,13.967,0,0,0,1.909-.306.392.392,0,0,0,.248-.178.4.4,0,0,0,.05-.3.411.411,0,0,0-.45-.3h-.031a12.927,12.927,0,0,1-1.542.263l-.134.015.024-.133q.06-.327.135-.672a.4.4,0,0,0-.056-.3A.436.436,0,0,0,11,7.6a.4.4,0,0,0-.392.315c-.07.329-.132.647-.185.952l-.013.08-.081,0c-.17.007-.338.01-.5.01-.273,0-.54-.009-.826-.027a.4.4,0,0,0-.3.664.4.4,0,0,0,.274.135c.275.019.558.028.846.028l.471-.007-.015.115c-.05.4-.085.778-.106,1.136l0,.059-.054.026a3.635,3.635,0,0,0-1.782,1.626A1.893,1.893,0,0,0,8.509,14.9a1.219,1.219,0,0,0,.888.343,1.84,1.84,0,0,0,.416-.048,2.667,2.667,0,0,0,.628-.229l.1-.052.081.227a.4.4,0,0,0,.515.234.4.4,0,0,0,.234-.514c-.04-.109-.082-.235-.124-.379l-.017-.059.046-.042a5.046,5.046,0,0,0,1.532-2.859l.019-.105.1.026a2.094,2.094,0,0,1,.3.1,1.472,1.472,0,0,1,.866.981,2.337,2.337,0,0,1-1.745,2.6.4.4,0,0,0-.229.517.4.4,0,0,0,.374.256.394.394,0,0,0,.143-.027A3.112,3.112,0,0,0,14.872,12.319Zm-4.6,1.821a2.166,2.166,0,0,1-.637.274,1.1,1.1,0,0,1-.242.029.433.433,0,0,1-.317-.1,1.125,1.125,0,0,1-.037-1.271,2.573,2.573,0,0,1,.942-1l.151-.1,0,.179a10.941,10.941,0,0,0,.182,1.886l.013.068ZM12,11.517a4.377,4.377,0,0,1-.808,1.784l-.15.193-.028-.243a11.833,11.833,0,0,1-.071-1.563l.122-.111.071-.02a4.792,4.792,0,0,1,.754-.161l.138-.016Z" />
    <path class="light-blue" d="M12.854,6.854h-.708l-2-2,.708-.708L12,5.293V4a2,2,0,0,0-2-2H8V1h2a3,3,0,0,1,3,3V5.293l1.146-1.147.708.708Z" />
  </g>
</svg>
